# File created by Blade
# Date/Time:  Wed Jan 28 15:39:58 2015
#---------------------------------------------------------
:version 1.10
:name HOM
:units
  mass 1.0
  length 1.000000
  angle deg
:documentation
     Acclaim Skeleton File
:root
   axis xyz
   order TX TY TZ RX RY RZ
   position 0.000000 0.000000 0.000000
   orientation 0 0 0
:bonedata
   begin
      id 1
      name Spine_dum
      direction 0.000000 1.000000 0.000000
      length 6.864287
      axis 0.0 0.0 0.0 xyz
   end
   begin
      id 2
      name LeftUpLeg_dum
      direction 1.000000 0.000000 0.000000
      length 4.117376
      axis 0.0 0.0 0.0 xyz
   end
   begin
      id 3
      name RightUpLeg_dum
      direction -1.000000 0.000000 0.000000
      length 4.117376
      axis 0.0 0.0 0.0 xyz
   end
   begin
      id 4
      name Spine
      direction 0.000000 1.000000 0.000000
      length 0.000000
      axis 0.0 0.0 0.0 xyz
      dof rx ry rz
   end
   begin
      id 5
      name Spine_dum1
      direction 0.000000 1.000000 0.000000
      length 15.393827
      axis 0.0 0.0 0.0 xyz
   end
   begin
      id 6
      name Spine_dum2
      direction 0.000000 1.000000 0.000000
      length 9.314826
      axis 0.0 0.0 0.0 xyz
   end
   begin
      id 7
      name Spine_dum3
      direction 0.000000 1.000000 0.000000
      length 9.314826
      axis 0.0 0.0 0.0 xyz
   end
   begin
      id 8
      name Head
      direction 0.000000 1.000000 0.000000
      length 4.527550
      axis 0.0 0.0 0.0 xyz
      dof rx ry rz
   end
   begin
      id 9
      name LeftShoulder
      direction 1.000000 0.000000 0.000000
      length 8.275398
      axis 0.0 0.0 -90.0 xyz
      dof rx ry rz
   end
   begin
      id 10
      name LeftArm
      direction 1.000000 0.000000 0.000000
      length 12.002200
      axis 0.0 0.0 -90.0 xyz
      dof rx ry rz
   end
   begin
      id 11
      name LeftForeArm
      direction 1.000000 0.000000 0.000000
      length 10.144633
      axis 0.0 0.0 -90.0 xyz
      dof ry rz rx
   end
   begin
      id 12
      name LeftHand
      direction 0.000000 0.000000 0.000000
      length 0.000000
      axis 0.0 0.0 -90.0 xyz
      dof rx ry rz
   end
   begin
      id 13
      name LeftHand_dum1
      direction 0.000000 0.000000 0.000000
      length 0.000000
      axis 0.0 0.0 -90.0 xyz
   end
   begin
      id 14
      name LeftHand_dum2
      direction 1.000000 0.000000 0.000000
      length 3.937000
      axis 0.0 0.0 -90.0 xyz
   end
   begin
      id 15
      name LeftHandThumb1
      direction 0.000000 0.000000 1.000000
      length 3.937000
      axis 0.0 0.0 -90.0 xyz
      dof rx rz ry
   end
   begin
      id 16
      name RightShoulder
      direction -1.000000 0.000000 0.000000
      length 8.275398
      axis 0.0 0.0 90.0 xyz
      dof rx ry rz
   end
   begin
      id 17
      name RightArm
      direction -1.000000 0.000000 0.000000
      length 12.002200
      axis 0.0 0.0 90.0 xyz
      dof rx ry rz
   end
   begin
      id 18
      name RightForeArm
      direction -1.000000 0.000000 0.000000
      length 10.144633
      axis 0.0 0.0 90.0 xyz
      dof ry rz rx
   end
   begin
      id 19
      name RightHand
      direction 0.000000 0.000000 0.000000
      length 0.000000
      axis 0.0 0.0 90.0 xyz
      dof rx ry rz
   end
   begin
      id 20
      name RightHand_dum1
      direction 0.000000 0.000000 0.000000
      length 0.000000
      axis 0.0 0.0 90.0 xyz
   end
   begin
      id 21
      name RightHand_dum2
      direction -1.000000 0.000000 0.000000
      length 3.937000
      axis 0.0 0.0 90.0 xyz
   end
   begin
      id 22
      name RightHandThumb1
      direction 0.000000 0.000000 1.000000
      length 3.937000
      axis 0.0 0.0 90.0 xyz
      dof rx rz ry
   end
   begin
      id 23
      name LeftUpLeg
      direction 0.000000 -1.000000 0.000000
      length 19.394322
      axis 0.0 0.0 0.0 xyz
      dof rx ry rz
   end
   begin
      id 24
      name LeftLeg
      direction 0.000000 -1.000000 0.000000
      length 17.609563
      axis 0.0 0.0 0.0 xyz
      dof rx ry rz
   end
   begin
      id 25
      name LeftFoot
      direction 0.000000 -0.258819 0.965926
      length 6.085393
      axis 15.0 0.0 0.0 xyz
      dof rx ry rz
   end
   begin
      id 26
      name LeftToeBase
      direction 0.000000 0.000000 1.000000
      length 2.952750
      axis 0.0 0.0 0.0 xyz
      dof rx ry rz
   end
   begin
      id 27
      name RightUpLeg
      direction 0.000000 -1.000000 0.000000
      length 19.394322
      axis 0.0 0.0 0.0 xyz
      dof rx ry rz
   end
   begin
      id 28
      name RightLeg
      direction 0.000000 -1.000000 0.000000
      length 17.609563
      axis 0.0 0.0 0.0 xyz
      dof rx ry rz
   end
   begin
      id 29
      name RightFoot
      direction 0.000000 -0.258819 0.965926
      length 6.085393
      axis 15.0 0.0 0.0 xyz
      dof rx ry rz
   end
   begin
      id 30
      name RightToeBase
      direction 0.000000 0.000000 1.000000
      length 2.952750
      axis 0.0 0.0 0.0 xyz
      dof rx ry rz
   end
:hierarchy
   begin
      root Spine_dum LeftUpLeg_dum RightUpLeg_dum
      Spine_dum Spine
      LeftUpLeg_dum LeftUpLeg
      RightUpLeg_dum RightUpLeg
      Spine Spine_dum1 Spine_dum2 Spine_dum3
      Spine_dum1 Head
      Spine_dum2 LeftShoulder
      Spine_dum3 RightShoulder
      LeftShoulder LeftArm
      LeftArm LeftForeArm
      LeftForeArm LeftHand
      LeftHand LeftHand_dum1 LeftHand_dum2
      LeftHand_dum1 LeftHandThumb1
      RightShoulder RightArm
      RightArm RightForeArm
      RightForeArm RightHand
      RightHand RightHand_dum1 RightHand_dum2
      RightHand_dum1 RightHandThumb1
      LeftUpLeg LeftLeg
      LeftLeg LeftFoot
      LeftFoot LeftToeBase
      RightUpLeg RightLeg
      RightLeg RightFoot
      RightFoot RightToeBase
   end

# File created by Blade
# Date/Time:  Wed Jan 28 15:40:07 2015
# Frame Rate: 120.000 fps
#------------------------------------------------------
:FULLY-SPECIFIED
:DEGREES
1096
root -8.453644 40.289395 -16.111231 17.212283 -49.509498 48.771790
Spine 15.185309 0.137233 22.886222
Head -31.509731 -34.020650 -1.607242
LeftShoulder -18.233503 14.035241 -9.228483
LeftArm 8.064236 17.936705 -88.922962
LeftForeArm -17.905117 -0.000000 6.788214
LeftHand -1.583136 0.000000 -11.413713
LeftHandThumb1 -26.253704 0.000000 33.147579
RightShoulder -15.910158 7.845944 -46.686603
RightArm 42.054441 83.079379 62.822309
RightForeArm 3.012615 -0.000000 96.823080
RightHand -15.736348 -0.000000 -40.417894
RightHandThumb1 -24.326973 -0.000000 -32.862282
LeftUpLeg -17.754225 -0.526471 18.858058
LeftLeg 152.760766 -0.000000 -0.000000
LeftFoot 27.142065 -0.996341 -25.636804
LeftToeBase 5.144509 -0.000000 -0.000000
RightUpLeg -60.041458 -10.421171 -19.366619
RightLeg 22.845124 -0.000000 -0.000000
RightFoot -26.524281 -19.037589 14.069645
RightToeBase 10.232841 -0.000000 -0.000000
1097
root -8.446932 40.290949 -16.102815 17.184008 -49.589820 48.815844
Spine 15.166901 0.218839 22.906945
Head -31.535949 -34.030165 -1.644231
LeftShoulder -18.196396 13.964751 -9.214378
LeftArm 7.973727 17.964642 -88.929175
LeftForeArm -18.032522 -0.000000 6.779612
LeftHand -1.677012 0.000000 -11.515659
LeftHandThumb1 -26.253704 0.000000 33.147579
RightShoulder -15.902679 7.828063 -46.703349
RightArm 43.424006 83.076350 64.129719
RightForeArm 2.865240 -0.000000 96.844177
RightHand -15.813441 0.000000 -40.390747
RightHandThumb1 -24.326973 -0.000000 -32.862282
LeftUpLeg -17.719923 -0.516437 18.807942
LeftLeg 152.742054 -0.000000 -0.000000
LeftFoot 27.088141 -1.040586 -25.499479
LeftToeBase 5.047389 -0.000000 -0.000000
RightUpLeg -60.058919 -10.398740 -19.386202
RightLeg 22.791741 -0.000000 -0.000000
RightFoot -26.487497 -19.031493 14.039675
RightToeBase 10.206405 -0.000000 -0.000000
1098
root -8.439895 40.293065 -16.095704 17.163701 -49.665241 48.871049
Spine 15.130480 0.288101 22.912108
Head -31.552193 -34.013477 -1.682561
LeftShoulder -18.289290 14.081233 -9.275750
LeftArm 8.120572 17.999288 -88.874222
LeftForeArm -17.857229 -0.000000 6.770363
LeftHand -1.683679 0.000000 -11.463938
LeftHandThumb1 -26.253704 0.000000 33.147579
RightShoulder -15.888761 7.794957 -46.721844
RightArm 44.949740 83.078835 65.615038
RightForeArm 2.753309 0.000000 96.868683
RightHand -15.959078 -0.000000 -40.357106
RightHandThumb1 -24.326973 -0.000000 -32.862282
LeftUpLeg -17.702263 -0.454083 18.731462
LeftLeg 152.727843 -0.000000 -0.000000
LeftFoot 26.984028 -0.900843 -25.512628
LeftToeBase 5.108292 -0.000000 -0.000000
RightUpLeg -60.086685 -10.379392 -19.417873
RightLeg 22.730249 -0.000000 -0.000000
RightFoot -26.449584 -19.033863 14.019868
RightToeBase 10.218310 -0.000000 -0.000000
1099
root -8.432987 40.295966 -16.088769 17.152746 -49.734038 48.906515
Spine 15.101911 0.365941 22.927693
Head -31.581816 -33.997682 -1.682533
LeftShoulder -18.279344 14.055700 -9.255782
LeftArm 8.084431 18.048649 -88.896155
LeftForeArm -17.850473 -0.000000 6.726681
LeftHand -1.610070 0.000000 -11.401077
LeftHandThumb1 -26.253704 0.000000 33.147579
RightShoulder -15.865017 7.799043 -46.734477
RightArm 45.922024 83.086671 66.527148
RightForeArm 2.656588 -0.000000 96.856453
RightHand -15.989521 -0.000000 -40.373761
RightHandThumb1 -24.326973 -0.000000 -32.862282
LeftUpLeg -17.681020 -0.431603 18.680105
LeftLeg 152.716239 -0.000000 -0.000000
LeftFoot 26.962530 -0.906183 -25.433411
LeftToeBase 5.061176 -0.000000 -0.000000
RightUpLeg -60.100316 -10.345633 -19.454271
RightLeg 22.666144 -0.000000 -0.000000
RightFoot -26.401376 -19.054056 13.995508
RightToeBase 10.180774 -0.000000 -0.000000
1100
root -8.426066 40.298166 -16.083778 17.153481 -49.775149 48.915599
Spine 15.088617 0.403822 22.969814
Head -31.648030 -33.990683 -1.669645
LeftShoulder -18.275842 14.002932 -9.247887
LeftArm 7.991691 18.050000 -88.921914
LeftForeArm -17.765475 -0.000000 6.770983
LeftHand -1.611059 0.000000 -11.375860
LeftHandThumb1 -26.253704 0.000000 33.147579
RightShoulder -15.847936 7.838097 -46.780301
RightArm 46.673819 83.086483 67.244450
RightForeArm 2.565329 0.000000 96.832982
RightHand -15.991616 -0.000000 -40.410029
RightHandThumb1 -24.326973 -0.000000 -32.862282
LeftUpLeg -17.659982 -0.430182 18.671521
LeftLeg 152.732839 -0.000000 -0.000000
LeftFoot 26.891763 -0.937287 -25.333960
LeftToeBase 5.096139 -0.000000 -0.000000
RightUpLeg -60.092417 -10.318297 -19.477105
RightLeg 22.595351 -0.000000 -0.000000
RightFoot -26.358711 -19.100933 13.934839
RightToeBase 10.163907 -0.000000 -0.000000
1101
root -8.419502 40.300715 -16.079652 17.154124 -49.813890 48.933321
Spine 15.070112 0.455630 22.996260
Head -31.707754 -33.991046 -1.643279
LeftShoulder -18.263193 13.947218 -9.228507
LeftArm 7.894939 18.007908 -88.950681
LeftForeArm -17.629784 -0.000000 6.822253
LeftHand -1.632730 -0.000000 -11.387839
LeftHandThumb1 -26.253704 0.000000 33.147579
RightShoulder -15.854541 7.828685 -46.811338
RightArm 47.657184 83.082616 68.207436
RightForeArm 2.472851 -0.000000 96.815672
RightHand -16.002265 -0.000000 -40.441759
RightHandThumb1 -24.326973 -0.000000 -32.862282
LeftUpLeg -17.647915 -0.402469 18.642319
LeftLeg 152.732013 -0.000000 -0.000000
LeftFoot 26.840309 -0.865250 -25.247245
LeftToeBase 5.211436 -0.000000 -0.000000
RightUpLeg -60.098431 -10.290130 -19.507568
RightLeg 22.541853 -0.000000 -0.000000
RightFoot -26.331130 -19.136805 13.943918
RightToeBase 10.195132 -0.000000 -0.000000
1102
root -8.412669 40.302118 -16.075178 17.161732 -49.845326 48.942810
Spine 15.039377 0.497774 23.026251
Head -31.743315 -33.955858 -1.620097
LeftShoulder -18.272655 13.955849 -9.226908
LeftArm 7.867699 18.000964 -88.958426
LeftForeArm -17.530242 -0.000000 6.861823
LeftHand -1.662536 -0.000000 -11.405533
LeftHandThumb1 -26.253704 0.000000 33.147579
RightShoulder -15.842770 7.812628 -46.849059
RightArm 48.606976 83.096931 69.163639
RightForeArm 2.386856 -0.000000 96.802591
RightHand -16.095134 -0.000000 -40.191224
RightHandThumb1 -24.326973 -0.000000 -32.862282
LeftUpLeg -17.620109 -0.399420 18.659750
LeftLeg 152.750337 -0.000000 -0.000000
LeftFoot 26.820639 -1.005336 -24.926396
LeftToeBase 5.056568 -0.000000 -0.000000
RightUpLeg -60.108309 -10.278057 -19.518898
RightLeg 22.495766 -0.000000 -0.000000
RightFoot -26.310895 -19.147010 13.945841
RightToeBase 10.179412 -0.000000 -0.000000
1103
root -8.406563 40.304628 -16.068480 17.137422 -49.867919 48.979453
Spine 15.024638 0.521423 23.037922
Head -31.802776 -33.924229 -1.580288
LeftShoulder -18.308506 13.958371 -9.223013
LeftArm 7.869393 18.061957 -88.960127
LeftForeArm -17.477889 -0.000000 6.861892
LeftHand -1.713946 -0.000000 -11.479019
LeftHandThumb1 -26.253704 0.000000 33.147579
RightShoulder -15.849848 7.733138 -46.860618
RightArm 49.999594 83.116868 70.552875
RightForeArm 2.342521 0.000000 96.782749
RightHand -16.097452 -0.000000 -40.131633
RightHandThumb1 -24.326973 -0.000000 -32.862282
LeftUpLeg -17.581462 -0.400318 18.646337
LeftLeg 152.754252 -0.000000 -0.000000
LeftFoot 26.810112 -1.015842 -24.760782
LeftToeBase 4.982033 -0.000000 -0.000000
RightUpLeg -60.101373 -10.279478 -19.550350
RightLeg 22.456270 -0.000000 -0.000000
RightFoot -26.296589 -19.161234 13.938696
RightToeBase 10.069009 -0.000000 -0.000000
